<svg xmlns="http://www.w3.org/2000/svg" version="1.1" viewBox="-5 0 455 500">
<path transform="rotate(10 250 250) translate(25)" id="bottle" stroke="#0074D9" stroke-width="5" fill="none" d="M 100 500 L 300 500 L 300 100 L 220 100 L 220 50  L 250 50 L 250 20 L 150 20 L 150 50 L 180 50 L 180 100 L 100 100 Z"/>
<path id="waves" stroke="#0074D9" fill="white" stroke-width ="5" d="M 0 300 A 25 25 0 0 1 50 300 A 25 25 0 0 0 100 300 A 25 25 0 0 1 150 300 A 25 25 0 0 0 200 300 A 25 25 0 0 1 250 300 A 25 25 0 0 0 300 300 A 25 25 0 0 1 350 300 A 25 25 0 0 0 400 300 A 25 25 0 0 1 450 300 L 450 600 L 0 600 Z" />
</svg>
